<svg xmlns="http://www.w3.org/2000/svg" xml:space="preserve" width="512" height="512"><path fill="none" d="m111.68 114.26 17.733 40.787 40.084 17.274a2.89 2.89 0 0 1 0 4.084l-55.431 16.654-2.386 41.408a2.86 2.86 0 0 1-4.067 0L55.718 221.35l-5.922-44.945a2.89 2.89 0 0 1 0-4.084l57.817-58.061c1.127-1.131 4.067 0 4.067 0v0" style="color:#000;clip-rule:nonzero;display:inline;overflow:visible;visibility:visible;opacity:1;isolation:auto;mix-blend-mode:normal;color-interpolation:sRGB;color-interpolation-filters:linearRGB;solid-color:#000;solid-opacity:1;fill:#f67c5f;fill-opacity:0;fill-rule:evenodd;stroke:#000;stroke-width:16;stroke-linecap:round;stroke-linejoin:miter;stroke-miterlimit:4;stroke-dasharray:none;stroke-dashoffset:0;stroke-opacity:1;color-rendering:auto;image-rendering:auto;shape-rendering:auto;text-rendering:auto"/><path fill="none" d="m119.863 381.254 46.06 34.25c.584.585.584 1.53 0 2.115l-46.06 25.853a1.48 1.48 0 0 1-2.105 0l-24.688-5.3-5.238-24.753a1.496 1.496 0 0 1 0-2.114l23.804-6.185 6.122-23.867c.583-.586 2.105 0 2.105 0h0" style="color:#000;clip-rule:nonzero;display:inline;overflow:visible;visibility:visible;opacity:1;isolation:auto;mix-blend-mode:normal;color-interpolation:sRGB;color-interpolation-filters:linearRGB;solid-color:#000;solid-opacity:1;fill:#eee4da;fill-opacity:0;fill-rule:evenodd;stroke:#000;stroke-width:16;stroke-linecap:round;stroke-linejoin:miter;stroke-miterlimit:4;stroke-dasharray:none;stroke-dashoffset:0;stroke-opacity:1;color-rendering:auto;image-rendering:auto;shape-rendering:auto;text-rendering:auto"/><path fill="none" d="m269.556 161.624 100.376 100.803a5.015 5.015 0 0 1 0 7.09L269.556 370.32a4.967 4.967 0 0 1-7.062 0L162.117 269.517a5.015 5.015 0 0 1 0-7.09l100.377-100.803c1.944-1.964 7.062 0 7.062 0v0" style="color:#000;clip-rule:nonzero;display:inline;overflow:visible;visibility:visible;opacity:1;isolation:auto;mix-blend-mode:normal;color-interpolation:sRGB;color-interpolation-filters:linearRGB;solid-color:#000;solid-opacity:1;fill:#edcf72;fill-opacity:0;fill-rule:evenodd;stroke:#000;stroke-width:16;stroke-linecap:round;stroke-linejoin:miter;stroke-miterlimit:4;stroke-dasharray:none;stroke-dashoffset:0;stroke-opacity:1;color-rendering:auto;image-rendering:auto;shape-rendering:auto;text-rendering:auto"/><path d="m266.489 329.42 62.932-62.931-41.955-41.953-20.977 20.976-20.977-20.976-20.976 20.976 20.976 20.977 20.977-20.977 20.977 20.977-41.954 41.953z" style="fill:none;stroke:#000;stroke-width:16;stroke-linejoin:round;stroke-miterlimit:1.1;stroke-dasharray:none;stroke-opacity:1"/><path fill="none" d="m406.569 304.145 49.713 49.923c.969.97.969 2.542 0 3.512l-5.406 69.167-67.294 35.571a2.46 2.46 0 0 1-3.497 0L353.36 357.58a2.485 2.485 0 0 1 0-3.512l33.697-11.7 16.016-38.223c.969-.973 3.497 0 3.497 0v0M394.592 75.612l32.03 17.967 7.273 21.503c.767.767.767 2.01 0 2.777l3.336 30.344-42.639 9.126c-.76.77-2.003.77-2.765 0l-5.505-25.04-33.798-14.43a1.965 1.965 0 0 1 0-2.776l39.303-39.47c.766-.77 2.765 0 2.765 0v0" style="color:#000;clip-rule:nonzero;display:inline;overflow:visible;visibility:visible;opacity:1;isolation:auto;mix-blend-mode:normal;color-interpolation:sRGB;color-interpolation-filters:linearRGB;solid-color:#000;solid-opacity:1;fill:#eee4da;fill-opacity:0;fill-rule:evenodd;stroke:#000;stroke-width:16;stroke-linecap:round;stroke-linejoin:miter;stroke-miterlimit:4;stroke-dasharray:none;stroke-dashoffset:0;stroke-opacity:1;color-rendering:auto;image-rendering:auto;shape-rendering:auto;text-rendering:auto"/><path d="M265.23 107.86V52.162" style="fill:#0f0;stroke:#000;stroke-width:16;stroke-linecap:round;stroke-linejoin:round;stroke-miterlimit:1.1"/></svg>